<?xml version="1.0" standalone="no"?>
<!DOCTYPE svg PUBLIC "-//W3C//DTD SVG 20010904//EN"
 "http://www.w3.org/TR/2001/REC-SVG-20010904/DTD/svg10.dtd">
<svg version="1.0" xmlns="http://www.w3.org/2000/svg"
 width="2200.000000pt" height="2200.000000pt" viewBox="0 0 2200.000000 2200.000000"
 preserveAspectRatio="xMidYMid meet">

<g transform="translate(0.000000,2200.000000) scale(0.100000,-0.100000)"
fill="#000000" stroke="none">
<path d="M7738 21873 c7 -3 16 -2 19 1 4 3 -2 6 -13 5 -11 0 -14 -3 -6 -6z"/>
<path d="M7698 21863 c7 -3 16 -2 19 1 4 3 -2 6 -13 5 -11 0 -14 -3 -6 -6z"/>
<path d="M11800 21690 c-2827 -78 -5742 -860 -8725 -2341 -289 -143 -811 -412
-824 -425 -3 -2 9 -32 26 -67 63 -128 83 -173 83 -185 0 -7 12 -31 27 -55 14
-23 26 -43 25 -44 -3 -5 9 -38 28 -78 10 -22 22 -49 26 -60 9 -24 8 -22 25
-62 7 -18 17 -33 21 -33 4 0 8 -7 8 -16 0 -15 25 -74 76 -179 13 -28 24 -54
24 -58 0 -5 12 -34 26 -65 15 -31 39 -84 54 -117 15 -33 40 -87 55 -120 16
-33 29 -64 30 -70 1 -5 9 -26 18 -46 14 -32 33 -46 134 -99 1159 -614 2166
-2238 3063 -4940 197 -592 480 -1544 480 -1614 0 -77 -100 -92 -128 -19 -6 15
-58 192 -116 393 -407 1422 -827 2562 -1295 3515 -291 593 -555 1036 -851
1430 -392 522 -768 866 -1204 1104 -71 39 -133 76 -137 83 -5 7 -9 25 -9 39 0
31 -14 45 -55 55 -17 4 -34 10 -40 14 -5 5 -46 14 -90 20 -44 7 -86 18 -94 24
-22 17 -423 15 -444 -2 -9 -8 -26 -12 -39 -11 -13 2 -27 1 -33 -2 -5 -4 -23
-9 -40 -13 -16 -4 -43 -13 -60 -21 -16 -8 -55 -26 -85 -40 -30 -14 -64 -31
-75 -38 -40 -24 -141 -106 -174 -141 -19 -20 -43 -36 -52 -36 -19 0 -120 -109
-147 -158 -64 -118 -102 -198 -108 -228 -3 -19 -10 -37 -15 -40 -5 -3 -9 -13
-9 -22 0 -9 -6 -29 -14 -43 -7 -15 -19 -67 -26 -115 -7 -49 -18 -95 -24 -103
-15 -20 -15 -762 0 -782 6 -8 17 -74 24 -146 7 -73 16 -133 20 -133 4 0 10
-32 14 -72 3 -39 10 -76 15 -82 5 -6 12 -39 16 -74 4 -34 11 -65 16 -68 6 -3
7 -15 4 -25 -4 -11 -2 -25 3 -32 6 -7 13 -33 17 -60 4 -26 11 -49 15 -52 5 -3
11 -29 15 -58 4 -28 12 -57 17 -64 5 -7 7 -17 3 -23 -4 -6 -2 -16 3 -23 5 -7
13 -30 17 -52 4 -22 10 -44 15 -50 4 -5 11 -28 15 -50 4 -22 11 -46 17 -52 6
-7 8 -19 5 -28 -4 -8 -2 -17 3 -20 4 -3 11 -23 15 -45 4 -22 10 -42 15 -45 4
-3 11 -25 14 -50 4 -24 11 -47 16 -50 4 -3 14 -29 20 -57 7 -29 16 -57 20 -63
4 -5 11 -26 15 -45 4 -19 11 -40 15 -45 5 -6 14 -33 21 -60 6 -28 15 -54 19
-60 4 -5 11 -26 15 -45 4 -19 11 -39 15 -45 4 -5 13 -31 20 -58 7 -26 17 -50
21 -53 5 -3 9 -13 9 -22 0 -9 7 -30 15 -46 8 -15 15 -32 15 -36 0 -5 5 -21 12
-37 6 -15 12 -31 12 -35 1 -3 4 -10 9 -14 4 -4 7 -14 7 -21 0 -8 8 -33 19 -56
25 -57 34 -80 36 -92 2 -16 16 -51 56 -140 7 -16 14 -34 14 -40 1 -5 7 -23 15
-40 25 -58 30 -70 41 -100 7 -16 13 -32 14 -35 9 -27 19 -51 35 -85 31 -66 50
-113 50 -120 0 -4 9 -26 19 -49 47 -100 61 -133 61 -143 0 -15 33 -77 43 -81
4 -2 7 -11 7 -20 0 -8 9 -34 19 -56 56 -120 74 -162 73 -168 -1 -5 3 -8 8 -8
6 0 10 -7 10 -16 0 -8 12 -41 27 -72 15 -31 28 -59 28 -62 0 -3 16 -36 35 -75
19 -38 35 -74 36 -80 1 -15 25 -65 50 -105 11 -19 22 -39 24 -45 6 -23 26 -67
86 -190 35 -71 66 -141 70 -155 4 -14 10 -27 13 -30 9 -7 61 -117 61 -129 0
-5 3 -11 8 -13 7 -3 61 -110 64 -125 0 -5 11 -24 22 -43 20 -33 47 -89 48
-100 1 -3 11 -21 22 -40 22 -35 50 -95 45 -95 -1 0 9 -18 22 -40 21 -35 50
-90 54 -105 3 -12 30 -65 35 -70 5 -5 32 -58 35 -70 3 -12 30 -65 35 -70 9 -8
60 -118 60 -129 0 -5 3 -11 8 -13 7 -3 62 -112 62 -123 0 -4 12 -26 28 -49 15
-22 54 -95 86 -161 33 -66 69 -133 80 -150 12 -16 21 -32 22 -35 1 -11 30 -67
51 -102 13 -21 20 -38 17 -38 -4 0 4 -15 17 -33 40 -54 73 -124 65 -138 -20
-40 -38 -63 -104 -137 -40 -44 -72 -83 -72 -86 0 -4 -13 -19 -30 -33 -16 -13
-30 -29 -30 -35 0 -5 -30 -43 -66 -84 -37 -41 -63 -74 -60 -74 4 0 -22 -35
-59 -77 -94 -111 -105 -124 -105 -130 0 -3 -20 -29 -45 -57 -25 -29 -45 -57
-45 -61 0 -4 -22 -33 -50 -65 -28 -32 -50 -62 -50 -68 0 -6 -3 -12 -7 -14 -10
-4 -103 -126 -103 -134 0 -3 -16 -25 -35 -48 -19 -24 -35 -46 -35 -50 0 -3
-22 -35 -50 -70 -27 -35 -50 -67 -50 -71 0 -4 -14 -25 -31 -46 -17 -21 -28
-39 -24 -39 3 0 -14 -27 -39 -59 -25 -33 -46 -63 -46 -66 0 -4 -13 -24 -29
-44 -16 -20 -29 -40 -30 -46 -1 -5 -14 -28 -30 -50 -16 -22 -28 -42 -27 -45 0
-3 -10 -21 -24 -39 -13 -19 -32 -49 -41 -65 -9 -17 -32 -60 -51 -96 -45 -84
-62 -114 -68 -120 -9 -9 -60 -118 -60 -129 0 -6 -4 -11 -9 -11 -5 0 -12 -12
-15 -27 -4 -16 -21 -57 -37 -93 -17 -36 -37 -78 -44 -95 -8 -16 -19 -49 -25
-72 -6 -23 -15 -45 -20 -48 -5 -3 -12 -26 -16 -50 -3 -25 -10 -48 -15 -50 -4
-3 -11 -26 -15 -50 -3 -25 -10 -47 -14 -50 -4 -2 -5 -16 -2 -30 2 -14 -2 -33
-9 -42 -20 -23 -20 -452 -1 -475 7 -9 12 -20 11 -24 -5 -21 45 -124 83 -175
16 -20 28 -41 28 -46 0 -11 83 -93 94 -93 4 0 23 -12 42 -26 44 -34 178 -101
218 -110 17 -3 36 -11 43 -16 7 -5 17 -7 22 -4 5 4 12 2 15 -3 3 -5 30 -12 59
-16 28 -4 57 -11 63 -16 5 -4 48 -11 95 -15 46 -4 89 -10 94 -14 13 -11 779
-25 795 -15 7 4 50 7 95 6 46 -1 86 2 89 7 3 5 58 13 121 17 63 4 117 11 120
15 3 4 47 11 97 15 51 4 97 10 103 13 5 3 24 5 41 3 18 -1 35 2 38 7 3 6 40
13 81 17 42 4 77 11 80 15 3 5 33 11 67 15 35 4 67 10 73 13 5 3 24 5 41 3 18
-1 35 2 38 8 4 5 32 13 64 17 31 3 62 10 67 14 6 4 35 11 65 15 30 4 61 12 67
17 7 6 22 8 33 5 11 -3 23 -1 26 4 3 5 14 9 25 9 11 0 30 11 42 25 51 59 1593
677 2432 975 750 266 1514 503 2114 655 123 31 235 65 250 75 54 39 1041 231
1701 330 914 137 1689 204 2515 217 1549 23 2900 -205 4029 -681 60 -25 119
-46 132 -46 12 0 25 -4 28 -9 3 -5 63 -12 133 -16 71 -4 133 -11 138 -16 6 -4
98 -11 205 -14 107 -4 201 -9 209 -11 19 -6 513 -6 532 0 8 2 84 7 169 11 85
4 160 10 165 15 6 4 46 11 90 15 44 4 86 12 92 17 7 6 24 8 38 6 14 -3 28 -2
30 2 3 4 26 11 52 15 27 4 53 10 58 15 6 4 28 11 50 15 22 4 45 10 50 14 6 4
35 13 65 21 30 7 62 17 70 22 20 11 72 32 85 33 13 2 68 28 75 35 3 3 16 11
30 18 14 7 43 23 65 37 22 13 47 27 55 31 56 27 228 188 294 276 35 47 133
241 142 282 3 17 11 37 16 43 6 7 8 19 5 28 -4 8 -2 17 3 20 4 3 11 39 15 80
4 42 11 78 16 81 12 7 12 341 0 348 -4 3 -11 47 -15 98 -4 51 -11 97 -16 102
-5 5 -6 15 -3 22 3 8 1 20 -5 27 -6 6 -13 35 -17 62 -4 28 -11 55 -15 60 -4 6
-11 28 -15 50 -4 22 -11 45 -15 50 -5 6 -9 15 -10 20 -1 6 -6 20 -11 33 -5 13
-9 27 -9 32 0 5 -6 21 -14 37 -8 15 -41 81 -73 145 -87 175 -94 188 -104 188
-5 0 -9 5 -9 11 0 7 -16 31 -35 55 -19 23 -35 46 -35 50 0 4 -22 33 -50 65
-27 32 -50 61 -50 66 0 11 -262 273 -274 273 -4 0 -39 27 -77 61 -37 33 -69
59 -71 57 -2 -2 -24 14 -49 35 -25 20 -51 37 -58 37 -6 0 -11 5 -11 10 0 6 -5
10 -11 10 -6 0 -28 12 -48 28 -44 33 -68 48 -101 65 -14 7 -43 23 -65 37 -23
14 -50 30 -60 37 -28 17 -326 165 -405 201 -115 52 -125 56 -135 58 -5 0 -23
6 -38 12 -16 7 -35 12 -43 12 -8 0 -14 4 -14 10 0 5 -16 12 -35 16 -19 3 -38
10 -41 15 -3 5 -9 7 -14 4 -5 -3 -11 -1 -15 5 -3 5 -14 10 -23 10 -9 0 -30 7
-46 15 -15 8 -33 15 -40 15 -6 0 -24 7 -40 15 -15 8 -32 13 -36 10 -5 -3 -11
-1 -14 4 -3 5 -23 12 -43 16 -21 4 -42 10 -48 15 -5 4 -28 11 -50 15 -22 4
-44 10 -50 15 -5 4 -37 13 -70 20 -33 7 -64 16 -70 20 -5 4 -29 11 -52 15 -24
4 -45 10 -48 15 -3 4 -28 11 -55 15 -27 4 -52 11 -55 16 -3 4 -12 6 -20 2 -9
-3 -21 -1 -28 5 -6 5 -36 13 -64 17 -29 4 -55 11 -58 15 -3 4 -32 11 -65 15
-33 4 -62 11 -65 15 -3 4 -14 6 -25 3 -11 -3 -26 -1 -33 5 -7 6 -37 14 -67 18
-30 4 -59 10 -65 14 -5 4 -37 11 -70 15 -33 4 -64 10 -70 13 -5 3 -24 5 -41 3
-18 -1 -35 2 -38 7 -3 6 -39 13 -78 17 -40 4 -77 11 -83 15 -5 4 -44 11 -85
15 -41 4 -80 12 -87 17 -7 5 -27 8 -45 7 -18 -2 -38 0 -43 3 -6 3 -50 9 -100
13 -76 6 -94 11 -116 32 -23 21 -26 30 -21 71 2 26 8 52 12 57 4 6 10 43 14
84 3 41 10 79 15 85 4 6 14 61 21 121 7 61 16 115 20 120 4 6 11 37 15 70 4
33 12 66 17 72 6 7 8 24 6 38 -3 14 -2 28 2 30 4 3 11 39 15 80 4 41 10 75 15
75 4 0 11 32 15 70 4 39 11 72 15 75 4 3 13 44 20 92 7 49 16 93 20 98 5 6 11
40 15 78 4 37 11 67 15 67 4 0 11 32 15 70 4 39 11 72 16 75 4 3 6 12 2 20 -3
9 -1 21 5 28 5 6 13 39 17 72 4 33 10 65 15 70 4 6 11 36 14 67 4 32 11 60 15
63 5 2 6 16 3 30 -2 14 0 31 6 38 5 6 13 38 17 70 4 31 11 57 15 57 4 0 11 30
15 68 4 37 12 73 17 79 6 7 8 19 5 28 -4 8 -2 17 2 20 5 2 12 34 16 70 3 36
10 67 15 70 5 3 12 31 16 63 3 31 11 63 16 69 6 7 8 19 5 28 -4 8 -2 17 2 20
5 3 12 36 16 75 4 38 11 70 15 70 4 0 11 26 15 58 4 31 10 62 15 67 4 6 13 46
20 90 6 44 15 85 20 90 4 6 10 35 14 65 4 30 12 60 18 67 6 7 8 24 6 38 -3 14
-2 28 2 30 5 3 11 32 15 65 4 33 11 62 15 65 4 3 11 32 15 65 4 33 10 60 15
60 4 0 10 27 14 60 4 33 11 62 15 64 5 3 6 17 3 31 -2 14 1 31 7 38 5 7 13 39
17 70 4 32 10 60 15 63 4 2 11 32 15 65 4 32 10 62 15 65 4 2 6 11 2 19 -3 9
0 21 6 28 6 7 13 39 17 70 4 32 10 60 15 63 4 2 11 32 15 65 4 32 10 62 15 65
4 2 6 11 2 19 -3 9 -1 21 5 28 5 6 13 37 17 67 4 30 11 60 15 65 4 6 11 33 15
60 4 28 11 56 17 62 6 7 8 24 6 38 -3 14 -2 28 3 30 4 3 11 30 14 60 4 30 11
55 15 55 4 0 10 26 14 57 4 31 12 63 17 70 6 7 9 24 7 38 -3 14 -2 28 3 30 4
3 11 31 15 63 3 31 10 62 14 67 4 6 11 30 15 55 4 25 12 51 17 57 6 7 8 24 6
38 -3 14 -2 28 3 31 4 2 11 32 15 65 4 32 10 62 15 64 4 3 10 31 14 63 3 31
11 67 17 79 6 12 8 33 6 48 -3 14 -1 28 3 31 5 3 9 23 9 44 0 21 4 41 8 44 5
3 7 19 4 36 -2 16 0 36 6 43 6 6 14 66 18 132 4 66 11 123 16 126 13 9 13 615
0 632 -5 6 -13 54 -17 105 -4 50 -11 92 -17 92 -5 0 -8 12 -7 28 2 15 1 32 -3
37 -3 6 -9 36 -12 67 -4 32 -11 60 -16 63 -4 3 -11 20 -14 39 -4 20 -13 48
-21 63 -8 15 -15 34 -15 41 0 26 -102 240 -137 290 -13 17 -21 32 -18 32 4 0
-16 29 -44 65 -28 35 -51 68 -51 72 0 11 -203 213 -213 213 -4 0 -35 21 -70
48 -69 53 -91 67 -127 84 -14 7 -32 17 -40 24 -13 11 -117 67 -130 70 -11 2
-77 29 -135 55 -16 7 -35 13 -42 14 -6 0 -15 4 -19 8 -4 4 -15 7 -24 7 -10 0
-30 10 -45 21 -22 18 -29 20 -36 8 -5 -8 -9 -17 -9 -20 0 -13 -58 -27 -170
-42 -346 -46 -639 -203 -930 -496 -321 -323 -591 -772 -841 -1399 -540 -1350
-915 -3462 -1109 -6247 -11 -159 -25 -302 -31 -318 -19 -47 -78 -50 -111 -6
-19 25 -19 29 2 325 257 3628 787 6016 1614 7274 409 620 893 960 1449 1015
68 7 127 -6 127 -27 0 -5 5 -6 11 -2 6 3 9 15 6 25 -3 10 -2 21 3 24 4 3 11
55 15 117 4 62 11 118 15 123 4 6 11 65 15 133 4 67 12 125 17 128 5 3 8 36 8
72 -1 37 0 74 3 82 3 8 8 56 10 107 l6 92 -57 16 c-669 195 -1501 372 -2257
480 -967 138 -1895 191 -2875 165z m4653 -10288 c20 -18 22 -61 5 -85 -30 -39
-344 -161 -548 -212 -464 -117 -933 -85 -1354 91 -46 19 -92 44 -101 54 -36
40 -9 110 43 110 13 0 74 -20 136 -45 133 -53 301 -99 446 -121 126 -20 406
-22 530 -5 202 28 432 92 625 172 179 74 179 74 218 41z m-10229 -1101 c11
-12 16 -31 14 -52 -4 -42 -60 -89 -284 -238 -320 -214 -651 -348 -974 -396
-224 -34 -605 -12 -657 37 -31 29 -28 74 7 100 24 17 30 18 130 2 134 -20 374
-20 505 0 354 54 711 214 1063 478 125 94 162 107 196 69z"/>
<path d="M13700 8414 c-835 -38 -1322 -82 -2050 -185 -660 -93 -1750 -297
-1809 -339 -14 -10 -143 -48 -286 -84 -1196 -300 -2710 -831 -4324 -1515 -118
-50 -219 -91 -226 -91 -15 0 -25 -54 -25 -137 0 -34 -4 -64 -9 -67 -5 -3 -12
-95 -16 -203 -3 -109 -9 -205 -11 -213 -3 -8 -5 -85 -4 -172 0 -99 -3 -159
-10 -163 -14 -9 -14 -725 1 -725 7 0 10 -47 9 -142 -1 -79 0 -150 3 -158 3 -8
8 -85 12 -170 4 -85 10 -157 15 -160 4 -3 11 -58 15 -123 4 -64 11 -120 17
-123 5 -3 8 -23 7 -43 -2 -20 0 -41 3 -46 3 -6 9 -49 13 -97 4 -49 11 -88 15
-88 4 0 11 -30 15 -67 4 -38 10 -72 15 -78 4 -5 13 -49 20 -98 7 -48 16 -89
20 -92 5 -3 11 -29 15 -58 4 -28 12 -58 17 -64 6 -7 8 -19 5 -28 -4 -8 -2 -17
3 -20 6 -4 10 -17 10 -30 0 -13 5 -27 10 -30 6 -4 8 -11 4 -16 -3 -5 -1 -15 4
-22 6 -7 13 -30 17 -52 4 -22 11 -44 15 -50 4 -5 13 -32 19 -60 7 -27 16 -54
21 -60 4 -5 11 -25 15 -43 3 -17 10 -32 15 -32 4 0 11 -17 15 -38 4 -20 11
-41 15 -47 5 -5 8 -12 8 -15 1 -20 24 -71 126 -280 77 -156 118 -232 140 -260
7 -8 17 -26 24 -40 18 -38 36 -64 50 -73 6 -4 12 -13 12 -18 0 -6 16 -30 35
-53 19 -24 35 -47 35 -51 0 -4 21 -32 48 -62 26 -30 52 -63 57 -72 15 -27 152
-171 162 -171 4 0 34 -29 66 -65 32 -36 63 -65 69 -65 6 0 37 -23 69 -51 32
-27 59 -49 61 -47 2 2 24 -14 49 -34 25 -21 51 -38 58 -38 6 0 11 -4 11 -10 0
-5 5 -10 11 -10 6 0 25 -10 42 -22 49 -35 329 -178 377 -193 19 -6 68 -27 82
-35 10 -6 23 -10 29 -10 6 0 41 -14 77 -31 112 -52 162 -67 487 -143 480 -112
1100 -188 2200 -271 228 -17 382 -22 1045 -32 1567 -22 2980 188 4340 645 828
279 1548 612 2335 1080 l230 137 193 192 c105 106 192 197 192 203 0 6 27 43
60 83 33 41 60 77 60 82 0 4 11 23 25 41 14 18 25 36 25 39 0 3 11 21 25 39
22 29 73 117 107 186 7 14 15 27 18 30 8 8 34 64 35 75 0 6 12 35 27 65 22 47
34 75 43 100 1 3 7 18 13 33 7 16 12 33 12 38 0 5 4 17 10 27 13 22 34 74 35
87 0 6 3 15 7 20 3 6 9 29 13 52 4 24 10 45 15 48 4 3 11 29 15 58 4 28 12 58
17 64 6 7 8 19 5 28 -4 8 -2 17 3 20 6 4 10 17 10 30 0 13 4 26 9 29 4 3 6 17
3 31 -2 14 0 31 6 38 6 7 14 44 17 82 4 39 10 79 15 90 12 26 30 239 30 344 0
44 5 83 10 86 14 9 13 432 -1 440 -6 4 -10 46 -9 108 1 56 0 109 -3 117 -3 8
-8 69 -12 135 -4 66 -10 125 -15 130 -4 6 -11 53 -15 105 -4 52 -10 100 -14
105 -5 6 -14 60 -21 120 -7 61 -16 115 -20 120 -4 6 -11 42 -15 80 -4 39 -11
75 -15 80 -4 6 -14 46 -20 90 -7 44 -16 85 -20 90 -5 6 -11 36 -15 68 -4 31
-11 57 -15 57 -4 0 -11 25 -15 55 -3 30 -10 57 -15 60 -5 3 -7 12 -3 20 3 9 1
21 -5 28 -6 6 -13 30 -17 52 -4 22 -11 45 -15 50 -4 6 -11 29 -15 52 -4 24
-11 45 -15 48 -5 3 -7 12 -3 20 3 9 1 21 -5 28 -6 6 -13 30 -17 52 -4 22 -11
45 -15 50 -4 6 -11 26 -15 45 -4 19 -12 40 -17 47 -5 7 -7 17 -4 22 4 5 2 12
-3 15 -5 3 -12 26 -15 51 -4 24 -11 47 -16 50 -4 3 -11 23 -15 45 -4 22 -11
40 -17 40 -6 0 -8 7 -5 15 4 8 2 17 -3 20 -4 3 -11 23 -15 45 -4 22 -10 42
-15 45 -4 3 -11 21 -15 41 -3 20 -12 46 -20 58 -7 12 -16 36 -20 54 -4 18 -13
45 -21 60 -8 15 -14 34 -14 43 0 8 -4 19 -9 25 -5 5 -14 27 -20 49 -7 22 -16
49 -21 60 -5 11 -14 32 -19 47 -11 31 -24 37 -291 143 -819 325 -1742 514
-2865 585 -165 11 -1043 21 -1195 14z m1178 -1729 c56 -63 102 -117 102 -121
0 -3 45 -55 100 -114 55 -59 100 -111 100 -115 0 -4 70 -83 155 -175 85 -93
155 -172 155 -177 0 -4 23 -31 52 -60 29 -29 46 -53 39 -53 -9 0 -12 -10 -9
-30 3 -17 1 -33 -3 -36 -5 -2 -11 -32 -15 -65 -4 -32 -10 -62 -15 -64 -4 -3
-11 -31 -15 -63 -3 -31 -11 -63 -16 -69 -6 -7 -8 -19 -5 -28 4 -8 2 -17 -3
-20 -5 -3 -12 -33 -16 -66 -4 -32 -10 -62 -15 -64 -4 -3 -11 -31 -15 -63 -3
-31 -11 -63 -16 -69 -6 -7 -8 -19 -5 -28 4 -8 2 -17 -2 -19 -5 -3 -11 -33 -15
-65 -4 -33 -11 -63 -16 -66 -5 -3 -12 -31 -16 -63 -3 -31 -10 -61 -14 -67 -5
-5 -11 -31 -15 -58 -4 -26 -11 -49 -15 -52 -4 -2 -5 -16 -2 -30 2 -14 0 -31
-6 -38 -5 -6 -13 -32 -17 -57 -4 -25 -11 -49 -15 -55 -4 -5 -10 -25 -14 -44
-3 -19 -14 -43 -23 -53 -15 -17 -28 -6 -233 192 -120 116 -221 210 -225 210
-4 0 -86 75 -182 168 -96 92 -180 169 -186 171 -7 2 -36 28 -64 57 -29 30 -55
54 -59 54 -3 0 -37 28 -75 62 -72 63 -74 68 -49 123 9 18 30 71 35 85 11 33
23 62 56 135 7 17 14 35 15 40 2 18 15 52 55 140 7 17 14 35 15 40 0 6 6 23
12 38 7 16 12 35 12 43 0 8 4 14 10 14 5 0 12 16 16 35 3 19 10 38 15 41 5 2
13 24 19 47 10 40 26 79 57 139 7 14 13 31 13 38 0 6 9 32 21 58 11 26 24 56
28 67 5 11 14 34 21 50 8 17 14 35 15 40 1 12 11 38 29 80 8 17 18 42 24 57 7
18 20 28 39 31 74 11 73 11 181 -108z m-5650 -551 c12 -8 22 -12 22 -7 0 12
120 -110 134 -137 23 -44 41 -74 69 -117 15 -24 26 -46 25 -50 -1 -9 17 -59
31 -83 5 -9 12 -31 16 -50 4 -19 12 -41 17 -47 6 -7 8 -19 5 -27 -3 -7 0 -19
6 -25 18 -18 17 -469 -1 -480 -7 -4 -10 -15 -6 -24 3 -10 2 -23 -4 -30 -5 -6
-13 -32 -17 -57 -4 -25 -11 -49 -15 -55 -4 -5 -10 -23 -14 -40 -4 -16 -13 -43
-20 -60 -8 -16 -26 -56 -40 -87 -15 -32 -26 -59 -25 -60 2 -2 -9 -21 -22 -43
-14 -22 -37 -65 -53 -95 -46 -90 -62 -118 -90 -154 -14 -19 -26 -38 -26 -41 0
-4 -22 -35 -50 -70 -27 -35 -50 -67 -50 -72 0 -5 -30 -42 -67 -82 l-68 -72
-175 89 c-96 48 -194 100 -217 115 -24 15 -45 27 -48 27 -4 0 -21 11 -39 25
-18 14 -36 25 -41 25 -4 0 -36 23 -71 50 -35 28 -68 50 -74 50 -15 0 -341 326
-338 337 2 4 -13 30 -32 57 -19 26 -35 51 -36 55 0 3 -12 32 -27 63 -15 31
-27 63 -27 70 0 8 -4 18 -9 24 -29 28 -38 377 -10 410 5 6 6 14 3 17 -6 6 6
34 53 122 25 47 110 141 163 180 40 29 56 35 98 35 46 0 112 -23 120 -42 2 -5
10 -8 17 -8 7 0 27 -11 43 -25 17 -14 34 -25 38 -25 12 0 154 -142 154 -154 0
-13 41 -56 53 -56 5 0 22 -10 39 -21 93 -67 188 -90 226 -56 15 14 20 37 26
109 3 50 10 96 15 102 6 6 13 35 17 64 3 28 10 52 14 52 5 0 11 18 15 40 4 22
11 42 16 46 5 3 7 9 4 14 -3 5 -2 17 4 27 5 10 21 43 35 73 54 113 91 164 131
180 32 14 79 11 103 -6z m2956 -2363 c3 -4 31 -11 62 -14 31 -3 61 -10 67 -16
5 -5 15 -7 21 -5 7 3 26 -2 42 -11 16 -8 37 -15 47 -15 9 0 17 -4 17 -8 0 -4
12 -13 28 -20 52 -23 75 -40 139 -104 90 -89 108 -130 107 -244 0 -85 -2 -94
-32 -138 -18 -26 -32 -51 -32 -57 0 -13 -177 -189 -191 -189 -6 0 -28 -13 -48
-28 -40 -32 -170 -97 -215 -108 -16 -4 -41 -13 -55 -20 -14 -8 -38 -14 -53
-14 -15 0 -30 -5 -33 -11 -4 -6 -14 -8 -22 -5 -9 4 -22 1 -31 -6 -22 -19 -492
-18 -515 0 -9 8 -21 11 -26 8 -5 -4 -12 -2 -16 4 -3 5 -15 10 -26 10 -18 0
-90 27 -131 50 -10 6 -28 16 -40 22 -46 26 -159 144 -180 188 -11 25 -24 53
-29 62 -12 23 -12 115 0 122 4 3 11 22 14 42 3 20 17 51 31 69 14 18 23 35 20
38 -7 7 183 197 198 197 6 0 26 11 44 25 18 14 37 25 43 25 6 0 11 4 11 8 0 6
30 22 70 37 12 4 66 28 80 35 9 4 31 11 50 15 19 4 41 12 47 17 7 6 19 8 27 5
7 -3 18 -1 23 4 5 5 37 12 71 15 35 4 65 11 68 15 7 12 341 12 348 0z"/>
</g>
</svg>
