<?xml version="1.0" encoding="UTF-8"?>
<svg xmlns="http://www.w3.org/2000/svg" xmlns:xlink="http://www.w3.org/1999/xlink" width="180px" height="180px" viewBox="0 0 180 180" version="1.1">
<g id="surface1">
<path style=" stroke:none;fill-rule:nonzero;fill:rgb(0%,0%,0%);fill-opacity:1;" d="M 63.3125 1.039062 C 63.367188 1.0625 63.441406 1.054688 63.464844 1.03125 C 63.5 1.007812 63.449219 0.980469 63.359375 0.988281 C 63.269531 0.988281 63.246094 1.015625 63.3125 1.039062 Z M 63.3125 1.039062 "/>
<path style=" stroke:none;fill-rule:nonzero;fill:rgb(0%,0%,0%);fill-opacity:1;" d="M 62.984375 1.121094 C 63.039062 1.144531 63.113281 1.136719 63.140625 1.113281 C 63.171875 1.089844 63.121094 1.0625 63.03125 1.070312 C 62.941406 1.070312 62.917969 1.097656 62.984375 1.121094 Z M 62.984375 1.121094 "/>
<path style=" stroke:none;fill-rule:nonzero;fill:rgb(0%,0%,0%);fill-opacity:1;" d="M 96.546875 2.535156 C 73.414062 3.175781 49.566406 9.574219 25.160156 21.691406 C 22.792969 22.859375 18.523438 25.0625 18.417969 25.167969 C 18.394531 25.183594 18.492188 25.429688 18.628906 25.714844 C 19.144531 26.761719 19.308594 27.132812 19.308594 27.230469 C 19.308594 27.285156 19.40625 27.484375 19.53125 27.679688 C 19.644531 27.867188 19.742188 28.03125 19.734375 28.039062 C 19.710938 28.078125 19.808594 28.351562 19.964844 28.675781 C 20.046875 28.855469 20.144531 29.078125 20.175781 29.167969 C 20.25 29.363281 20.242188 29.347656 20.382812 29.675781 C 20.4375 29.824219 20.519531 29.945312 20.550781 29.945312 C 20.585938 29.945312 20.617188 30.003906 20.617188 30.078125 C 20.617188 30.199219 20.824219 30.683594 21.238281 31.539062 C 21.347656 31.769531 21.4375 31.984375 21.4375 32.015625 C 21.4375 32.054688 21.535156 32.292969 21.648438 32.546875 C 21.773438 32.800781 21.96875 33.234375 22.089844 33.503906 C 22.214844 33.773438 22.417969 34.214844 22.539062 34.488281 C 22.671875 34.757812 22.777344 35.011719 22.785156 35.058594 C 22.792969 35.101562 22.859375 35.273438 22.933594 35.433594 C 23.046875 35.699219 23.203125 35.8125 24.03125 36.246094 C 33.511719 41.269531 41.75 54.554688 49.089844 76.664062 C 50.703125 81.507812 53.019531 89.296875 53.019531 89.867188 C 53.019531 90.5 52.199219 90.621094 51.972656 90.023438 C 51.921875 89.902344 51.496094 88.453125 51.023438 86.808594 C 47.691406 75.175781 44.253906 65.847656 40.425781 58.050781 C 38.046875 53.199219 35.886719 49.574219 33.464844 46.351562 C 30.257812 42.078125 27.179688 39.265625 23.613281 37.316406 C 23.03125 37 22.523438 36.695312 22.492188 36.636719 C 22.449219 36.582031 22.417969 36.433594 22.417969 36.320312 C 22.417969 36.066406 22.304688 35.949219 21.96875 35.867188 C 21.828125 35.835938 21.691406 35.789062 21.640625 35.753906 C 21.601562 35.714844 21.265625 35.640625 20.90625 35.589844 C 20.542969 35.535156 20.199219 35.445312 20.136719 35.394531 C 19.957031 35.253906 16.675781 35.273438 16.503906 35.410156 C 16.429688 35.476562 16.289062 35.507812 16.183594 35.5 C 16.078125 35.484375 15.960938 35.492188 15.914062 35.515625 C 15.871094 35.550781 15.726562 35.589844 15.585938 35.625 C 15.457031 35.65625 15.234375 35.730469 15.09375 35.796875 C 14.964844 35.859375 14.644531 36.007812 14.398438 36.121094 C 14.15625 36.238281 13.875 36.375 13.785156 36.433594 C 13.460938 36.628906 12.632812 37.300781 12.363281 37.585938 C 12.207031 37.75 12.011719 37.882812 11.9375 37.882812 C 11.78125 37.882812 10.957031 38.773438 10.734375 39.175781 C 10.210938 40.140625 9.898438 40.792969 9.851562 41.039062 C 9.828125 41.195312 9.769531 41.34375 9.726562 41.367188 C 9.6875 41.390625 9.65625 41.472656 9.65625 41.546875 C 9.65625 41.621094 9.605469 41.785156 9.539062 41.898438 C 9.484375 42.023438 9.382812 42.449219 9.328125 42.839844 C 9.269531 43.242188 9.179688 43.617188 9.132812 43.683594 C 9.007812 43.847656 9.007812 49.917969 9.132812 50.082031 C 9.179688 50.144531 9.269531 50.6875 9.328125 51.277344 C 9.382812 51.871094 9.457031 52.363281 9.492188 52.363281 C 9.523438 52.363281 9.574219 52.625 9.605469 52.953125 C 9.628906 53.273438 9.6875 53.574219 9.726562 53.625 C 9.769531 53.671875 9.828125 53.941406 9.859375 54.230469 C 9.890625 54.507812 9.949219 54.761719 9.988281 54.785156 C 10.039062 54.808594 10.046875 54.90625 10.023438 54.988281 C 9.988281 55.078125 10.007812 55.195312 10.046875 55.25 C 10.097656 55.308594 10.152344 55.523438 10.1875 55.742188 C 10.21875 55.957031 10.277344 56.144531 10.308594 56.167969 C 10.351562 56.191406 10.398438 56.40625 10.433594 56.644531 C 10.464844 56.871094 10.53125 57.109375 10.570312 57.167969 C 10.613281 57.222656 10.628906 57.304688 10.59375 57.355469 C 10.5625 57.402344 10.578125 57.484375 10.621094 57.542969 C 10.660156 57.601562 10.726562 57.789062 10.757812 57.96875 C 10.792969 58.148438 10.839844 58.328125 10.882812 58.378906 C 10.914062 58.417969 10.972656 58.605469 11.003906 58.785156 C 11.039062 58.964844 11.09375 59.164062 11.144531 59.210938 C 11.191406 59.269531 11.210938 59.367188 11.183594 59.441406 C 11.152344 59.507812 11.167969 59.578125 11.210938 59.605469 C 11.242188 59.628906 11.300781 59.792969 11.332031 59.972656 C 11.363281 60.152344 11.414062 60.316406 11.453125 60.339844 C 11.488281 60.367188 11.542969 60.546875 11.570312 60.75 C 11.601562 60.945312 11.660156 61.132812 11.699219 61.160156 C 11.734375 61.183594 11.816406 61.394531 11.863281 61.625 C 11.921875 61.863281 11.996094 62.09375 12.027344 62.140625 C 12.058594 62.183594 12.117188 62.355469 12.148438 62.507812 C 12.183594 62.664062 12.238281 62.835938 12.273438 62.878906 C 12.3125 62.925781 12.386719 63.148438 12.445312 63.367188 C 12.492188 63.597656 12.566406 63.808594 12.601562 63.859375 C 12.632812 63.898438 12.691406 64.070312 12.722656 64.226562 C 12.753906 64.382812 12.8125 64.546875 12.84375 64.59375 C 12.878906 64.636719 12.953125 64.847656 13.007812 65.070312 C 13.066406 65.28125 13.148438 65.480469 13.179688 65.503906 C 13.222656 65.527344 13.253906 65.609375 13.253906 65.683594 C 13.253906 65.757812 13.3125 65.929688 13.378906 66.058594 C 13.441406 66.183594 13.5 66.320312 13.5 66.355469 C 13.5 66.394531 13.539062 66.527344 13.597656 66.65625 C 13.648438 66.78125 13.695312 66.910156 13.695312 66.945312 C 13.703125 66.96875 13.730469 67.027344 13.769531 67.058594 C 13.800781 67.089844 13.828125 67.171875 13.828125 67.230469 C 13.828125 67.296875 13.894531 67.5 13.984375 67.6875 C 14.1875 68.15625 14.261719 68.34375 14.277344 68.441406 C 14.292969 68.570312 14.40625 68.859375 14.734375 69.585938 C 14.792969 69.71875 14.851562 69.863281 14.851562 69.914062 C 14.859375 69.953125 14.90625 70.101562 14.972656 70.242188 C 15.175781 70.714844 15.21875 70.8125 15.308594 71.058594 C 15.367188 71.191406 15.414062 71.320312 15.421875 71.34375 C 15.496094 71.566406 15.578125 71.761719 15.710938 72.039062 C 15.960938 72.582031 16.117188 72.964844 16.117188 73.023438 C 16.117188 73.054688 16.191406 73.234375 16.273438 73.421875 C 16.65625 74.242188 16.773438 74.511719 16.773438 74.59375 C 16.773438 74.714844 17.042969 75.222656 17.125 75.257812 C 17.15625 75.273438 17.183594 75.347656 17.183594 75.421875 C 17.183594 75.484375 17.253906 75.699219 17.335938 75.878906 C 17.796875 76.859375 17.941406 77.203125 17.933594 77.253906 C 17.925781 77.292969 17.960938 77.316406 18 77.316406 C 18.050781 77.316406 18.082031 77.375 18.082031 77.449219 C 18.082031 77.515625 18.179688 77.785156 18.300781 78.039062 C 18.425781 78.292969 18.53125 78.519531 18.53125 78.546875 C 18.53125 78.570312 18.664062 78.839844 18.816406 79.160156 C 18.972656 79.46875 19.105469 79.765625 19.113281 79.8125 C 19.121094 79.9375 19.316406 80.34375 19.523438 80.671875 C 19.613281 80.828125 19.703125 80.992188 19.71875 81.039062 C 19.765625 81.230469 19.929688 81.589844 20.421875 82.59375 C 20.707031 83.175781 20.960938 83.75 20.996094 83.863281 C 21.027344 83.976562 21.078125 84.085938 21.101562 84.109375 C 21.175781 84.167969 21.601562 85.066406 21.601562 85.164062 C 21.601562 85.207031 21.625 85.253906 21.664062 85.269531 C 21.722656 85.296875 22.164062 86.171875 22.1875 86.292969 C 22.1875 86.335938 22.277344 86.488281 22.367188 86.644531 C 22.53125 86.914062 22.753906 87.375 22.761719 87.464844 C 22.769531 87.488281 22.851562 87.636719 22.941406 87.789062 C 23.121094 88.078125 23.351562 88.566406 23.308594 88.566406 C 23.300781 88.566406 23.382812 88.714844 23.488281 88.894531 C 23.660156 89.183594 23.898438 89.632812 23.933594 89.753906 C 23.957031 89.851562 24.175781 90.285156 24.21875 90.328125 C 24.257812 90.367188 24.480469 90.800781 24.503906 90.898438 C 24.527344 91 24.75 91.433594 24.789062 91.472656 C 24.863281 91.539062 25.28125 92.4375 25.28125 92.527344 C 25.28125 92.570312 25.304688 92.617188 25.347656 92.632812 C 25.40625 92.660156 25.855469 93.550781 25.855469 93.640625 C 25.855469 93.671875 25.953125 93.855469 26.082031 94.042969 C 26.207031 94.222656 26.527344 94.820312 26.789062 95.359375 C 27.058594 95.898438 27.351562 96.449219 27.441406 96.585938 C 27.539062 96.71875 27.613281 96.847656 27.621094 96.871094 C 27.628906 96.960938 27.867188 97.421875 28.039062 97.707031 C 28.144531 97.878906 28.203125 98.019531 28.179688 98.019531 C 28.144531 98.019531 28.210938 98.140625 28.316406 98.289062 C 28.644531 98.730469 28.914062 99.300781 28.847656 99.417969 C 28.683594 99.746094 28.539062 99.933594 28 100.539062 C 27.671875 100.898438 27.410156 101.21875 27.410156 101.242188 C 27.410156 101.273438 27.300781 101.398438 27.164062 101.511719 C 27.03125 101.617188 26.917969 101.75 26.917969 101.796875 C 26.917969 101.839844 26.671875 102.148438 26.378906 102.484375 C 26.074219 102.820312 25.863281 103.089844 25.886719 103.089844 C 25.921875 103.089844 25.707031 103.378906 25.40625 103.722656 C 24.636719 104.628906 24.546875 104.734375 24.546875 104.785156 C 24.546875 104.808594 24.382812 105.023438 24.175781 105.25 C 23.972656 105.488281 23.808594 105.71875 23.808594 105.75 C 23.808594 105.78125 23.628906 106.019531 23.398438 106.28125 C 23.171875 106.542969 22.992188 106.789062 22.992188 106.839844 C 22.992188 106.886719 22.964844 106.9375 22.933594 106.953125 C 22.851562 106.984375 22.089844 107.984375 22.089844 108.050781 C 22.089844 108.074219 21.960938 108.253906 21.804688 108.441406 C 21.648438 108.636719 21.519531 108.816406 21.519531 108.851562 C 21.519531 108.875 21.339844 109.136719 21.109375 109.421875 C 20.886719 109.710938 20.699219 109.972656 20.699219 110.003906 C 20.699219 110.039062 20.585938 110.210938 20.445312 110.382812 C 20.308594 110.550781 20.21875 110.699219 20.25 110.699219 C 20.273438 110.699219 20.136719 110.921875 19.929688 111.183594 C 19.726562 111.453125 19.554688 111.699219 19.554688 111.722656 C 19.554688 111.753906 19.449219 111.917969 19.316406 112.082031 C 19.1875 112.246094 19.078125 112.410156 19.070312 112.460938 C 19.0625 112.5 18.957031 112.6875 18.828125 112.867188 C 18.695312 113.046875 18.597656 113.210938 18.605469 113.238281 C 18.605469 113.261719 18.523438 113.40625 18.410156 113.554688 C 18.300781 113.710938 18.148438 113.957031 18.074219 114.085938 C 18 114.226562 17.8125 114.578125 17.65625 114.871094 C 17.289062 115.558594 17.148438 115.804688 17.101562 115.855469 C 17.027344 115.929688 16.609375 116.820312 16.609375 116.910156 C 16.609375 116.960938 16.578125 117 16.535156 117 C 16.496094 117 16.4375 117.097656 16.414062 117.222656 C 16.378906 117.351562 16.242188 117.6875 16.109375 117.980469 C 15.972656 118.277344 15.808594 118.621094 15.75 118.757812 C 15.683594 118.890625 15.59375 119.160156 15.546875 119.347656 C 15.496094 119.535156 15.421875 119.714844 15.382812 119.742188 C 15.339844 119.765625 15.285156 119.953125 15.25 120.148438 C 15.226562 120.355469 15.167969 120.542969 15.128906 120.558594 C 15.09375 120.582031 15.039062 120.773438 15.003906 120.96875 C 14.980469 121.171875 14.921875 121.351562 14.890625 121.378906 C 14.859375 121.394531 14.851562 121.507812 14.875 121.621094 C 14.890625 121.738281 14.859375 121.894531 14.800781 121.964844 C 14.636719 122.15625 14.636719 125.664062 14.792969 125.851562 C 14.851562 125.925781 14.890625 126.015625 14.882812 126.050781 C 14.84375 126.222656 15.25 127.0625 15.5625 127.480469 C 15.691406 127.644531 15.789062 127.816406 15.789062 127.855469 C 15.789062 127.949219 16.46875 128.617188 16.558594 128.617188 C 16.59375 128.617188 16.75 128.714844 16.902344 128.832031 C 17.261719 129.109375 18.359375 129.65625 18.6875 129.730469 C 18.828125 129.753906 18.980469 129.820312 19.039062 129.863281 C 19.097656 129.902344 19.179688 129.917969 19.21875 129.894531 C 19.261719 129.863281 19.316406 129.878906 19.34375 129.917969 C 19.367188 129.960938 19.585938 130.015625 19.824219 130.050781 C 20.054688 130.082031 20.289062 130.140625 20.339844 130.179688 C 20.382812 130.214844 20.734375 130.269531 21.117188 130.304688 C 21.492188 130.335938 21.84375 130.386719 21.886719 130.417969 C 21.992188 130.507812 28.261719 130.621094 28.390625 130.539062 C 28.449219 130.507812 28.800781 130.484375 29.167969 130.492188 C 29.542969 130.5 29.871094 130.476562 29.894531 130.433594 C 29.921875 130.394531 30.371094 130.328125 30.886719 130.296875 C 31.402344 130.261719 31.84375 130.207031 31.867188 130.171875 C 31.894531 130.140625 32.253906 130.082031 32.660156 130.050781 C 33.078125 130.015625 33.457031 129.96875 33.503906 129.945312 C 33.546875 129.917969 33.699219 129.902344 33.839844 129.917969 C 33.988281 129.925781 34.125 129.902344 34.152344 129.863281 C 34.175781 129.8125 34.476562 129.753906 34.8125 129.722656 C 35.15625 129.691406 35.445312 129.632812 35.46875 129.601562 C 35.492188 129.558594 35.738281 129.511719 36.015625 129.476562 C 36.300781 129.445312 36.566406 129.394531 36.613281 129.371094 C 36.65625 129.347656 36.808594 129.328125 36.949219 129.347656 C 37.097656 129.355469 37.234375 129.328125 37.261719 129.28125 C 37.292969 129.238281 37.523438 129.175781 37.785156 129.140625 C 38.039062 129.117188 38.289062 129.058594 38.332031 129.027344 C 38.382812 128.996094 38.617188 128.9375 38.863281 128.90625 C 39.109375 128.871094 39.363281 128.804688 39.410156 128.765625 C 39.46875 128.714844 39.59375 128.699219 39.683594 128.722656 C 39.773438 128.75 39.871094 128.734375 39.894531 128.691406 C 39.917969 128.652344 40.007812 128.617188 40.097656 128.617188 C 40.1875 128.617188 40.34375 128.527344 40.441406 128.414062 C 40.859375 127.929688 53.476562 122.875 60.339844 120.4375 C 66.476562 118.261719 72.726562 116.320312 77.636719 115.078125 C 78.644531 114.824219 79.558594 114.546875 79.683594 114.464844 C 80.125 114.144531 88.199219 112.574219 93.601562 111.761719 C 101.078125 110.644531 107.417969 110.09375 114.175781 109.988281 C 126.851562 109.800781 137.90625 111.664062 147.140625 115.558594 C 147.632812 115.765625 148.117188 115.9375 148.222656 115.9375 C 148.320312 115.9375 148.425781 115.96875 148.449219 116.011719 C 148.476562 116.050781 148.964844 116.109375 149.539062 116.140625 C 150.121094 116.171875 150.628906 116.230469 150.667969 116.273438 C 150.71875 116.304688 151.46875 116.363281 152.34375 116.386719 C 153.222656 116.417969 153.988281 116.460938 154.054688 116.476562 C 154.210938 116.527344 158.253906 116.527344 158.40625 116.476562 C 158.472656 116.460938 159.09375 116.417969 159.789062 116.386719 C 160.488281 116.355469 161.101562 116.304688 161.140625 116.261719 C 161.191406 116.230469 161.515625 116.171875 161.878906 116.140625 C 162.238281 116.109375 162.582031 116.042969 162.628906 116 C 162.6875 115.953125 162.828125 115.9375 162.941406 115.953125 C 163.054688 115.976562 163.171875 115.96875 163.1875 115.9375 C 163.210938 115.902344 163.398438 115.847656 163.613281 115.8125 C 163.832031 115.78125 164.046875 115.730469 164.085938 115.691406 C 164.136719 115.65625 164.316406 115.601562 164.496094 115.566406 C 164.675781 115.535156 164.863281 115.488281 164.90625 115.453125 C 164.953125 115.421875 165.191406 115.347656 165.4375 115.28125 C 165.683594 115.222656 165.945312 115.144531 166.007812 115.101562 C 166.171875 115.011719 166.597656 114.839844 166.703125 114.832031 C 166.8125 114.816406 167.261719 114.601562 167.316406 114.546875 C 167.34375 114.519531 167.449219 114.457031 167.5625 114.398438 C 167.679688 114.339844 167.914062 114.210938 168.09375 114.09375 C 168.277344 113.988281 168.480469 113.875 168.546875 113.84375 C 169.003906 113.621094 170.410156 112.304688 170.949219 111.582031 C 171.238281 111.199219 172.039062 109.613281 172.113281 109.277344 C 172.136719 109.136719 172.203125 108.972656 172.242188 108.925781 C 172.292969 108.867188 172.308594 108.769531 172.285156 108.695312 C 172.25 108.628906 172.269531 108.554688 172.308594 108.53125 C 172.34375 108.507812 172.398438 108.210938 172.433594 107.878906 C 172.464844 107.535156 172.523438 107.238281 172.5625 107.214844 C 172.660156 107.15625 172.660156 104.425781 172.5625 104.367188 C 172.53125 104.34375 172.472656 103.984375 172.441406 103.566406 C 172.40625 103.148438 172.351562 102.773438 172.308594 102.730469 C 172.269531 102.691406 172.261719 102.609375 172.285156 102.550781 C 172.308594 102.484375 172.292969 102.386719 172.242188 102.328125 C 172.195312 102.28125 172.136719 102.042969 172.105469 101.824219 C 172.070312 101.59375 172.015625 101.371094 171.980469 101.332031 C 171.949219 101.28125 171.890625 101.101562 171.859375 100.921875 C 171.828125 100.742188 171.769531 100.554688 171.738281 100.511719 C 171.695312 100.464844 171.664062 100.390625 171.65625 100.351562 C 171.644531 100.300781 171.605469 100.1875 171.566406 100.078125 C 171.523438 99.972656 171.492188 99.859375 171.492188 99.816406 C 171.492188 99.777344 171.441406 99.644531 171.375 99.515625 C 171.3125 99.394531 171.039062 98.851562 170.777344 98.328125 C 170.066406 96.898438 170.011719 96.789062 169.929688 96.789062 C 169.886719 96.789062 169.855469 96.75 169.855469 96.699219 C 169.855469 96.644531 169.722656 96.449219 169.566406 96.25 C 169.414062 96.0625 169.28125 95.875 169.28125 95.84375 C 169.28125 95.808594 169.101562 95.570312 168.871094 95.308594 C 168.652344 95.046875 168.464844 94.8125 168.464844 94.769531 C 168.464844 94.679688 166.320312 92.535156 166.222656 92.535156 C 166.1875 92.535156 165.902344 92.316406 165.59375 92.039062 C 165.289062 91.765625 165.027344 91.554688 165.011719 91.570312 C 164.996094 91.585938 164.816406 91.457031 164.609375 91.285156 C 164.40625 91.121094 164.191406 90.980469 164.136719 90.980469 C 164.085938 90.980469 164.046875 90.941406 164.046875 90.898438 C 164.046875 90.851562 164.003906 90.816406 163.957031 90.816406 C 163.90625 90.816406 163.726562 90.71875 163.5625 90.589844 C 163.203125 90.320312 163.007812 90.195312 162.738281 90.058594 C 162.621094 90 162.382812 89.867188 162.203125 89.753906 C 162.015625 89.640625 161.796875 89.507812 161.714844 89.453125 C 161.484375 89.3125 159.046875 88.101562 158.398438 87.808594 C 157.460938 87.382812 157.378906 87.347656 157.296875 87.332031 C 157.253906 87.332031 157.105469 87.285156 156.984375 87.234375 C 156.855469 87.175781 156.699219 87.136719 156.632812 87.136719 C 156.566406 87.136719 156.519531 87.105469 156.519531 87.054688 C 156.519531 87.011719 156.386719 86.957031 156.230469 86.921875 C 156.078125 86.898438 155.921875 86.84375 155.894531 86.800781 C 155.871094 86.761719 155.824219 86.742188 155.78125 86.769531 C 155.742188 86.792969 155.691406 86.777344 155.660156 86.726562 C 155.632812 86.6875 155.542969 86.644531 155.472656 86.644531 C 155.398438 86.644531 155.226562 86.589844 155.09375 86.523438 C 154.972656 86.457031 154.824219 86.398438 154.765625 86.398438 C 154.71875 86.398438 154.570312 86.34375 154.441406 86.277344 C 154.316406 86.210938 154.179688 86.171875 154.144531 86.195312 C 154.105469 86.21875 154.054688 86.203125 154.03125 86.164062 C 154.007812 86.121094 153.84375 86.066406 153.679688 86.03125 C 153.507812 86 153.335938 85.949219 153.285156 85.910156 C 153.246094 85.875 153.058594 85.820312 152.878906 85.785156 C 152.699219 85.753906 152.515625 85.703125 152.46875 85.664062 C 152.425781 85.632812 152.164062 85.558594 151.894531 85.5 C 151.625 85.441406 151.371094 85.367188 151.324219 85.335938 C 151.28125 85.304688 151.085938 85.246094 150.898438 85.214844 C 150.699219 85.179688 150.527344 85.132812 150.503906 85.089844 C 150.480469 85.058594 150.277344 85 150.054688 84.96875 C 149.832031 84.933594 149.628906 84.878906 149.605469 84.835938 C 149.578125 84.804688 149.507812 84.789062 149.441406 84.820312 C 149.367188 84.84375 149.269531 84.828125 149.210938 84.78125 C 149.164062 84.738281 148.917969 84.671875 148.6875 84.640625 C 148.449219 84.609375 148.238281 84.550781 148.214844 84.519531 C 148.1875 84.484375 147.953125 84.429688 147.683594 84.394531 C 147.410156 84.363281 147.175781 84.304688 147.148438 84.273438 C 147.125 84.238281 147.035156 84.222656 146.945312 84.25 C 146.855469 84.273438 146.734375 84.257812 146.675781 84.207031 C 146.617188 84.15625 146.371094 84.09375 146.128906 84.058594 C 145.882812 84.027344 145.644531 83.976562 145.59375 83.945312 C 145.554688 83.914062 145.292969 83.855469 145.023438 83.824219 C 144.753906 83.789062 144.5 83.742188 144.449219 83.714844 C 144.410156 83.691406 144.253906 83.675781 144.113281 83.691406 C 143.96875 83.699219 143.828125 83.675781 143.804688 83.632812 C 143.777344 83.585938 143.484375 83.527344 143.164062 83.496094 C 142.839844 83.460938 142.535156 83.40625 142.488281 83.371094 C 142.445312 83.339844 142.125 83.28125 141.789062 83.25 C 141.457031 83.21875 141.136719 83.152344 141.078125 83.109375 C 141.023438 83.070312 140.859375 83.046875 140.710938 83.054688 C 140.5625 83.070312 140.398438 83.054688 140.359375 83.027344 C 140.308594 83.003906 139.949219 82.957031 139.539062 82.921875 C 138.917969 82.875 138.773438 82.832031 138.59375 82.660156 C 138.402344 82.488281 138.378906 82.414062 138.421875 82.078125 C 138.4375 81.867188 138.484375 81.65625 138.519531 81.613281 C 138.550781 81.566406 138.601562 81.261719 138.632812 80.925781 C 138.65625 80.589844 138.714844 80.28125 138.753906 80.230469 C 138.789062 80.183594 138.871094 79.730469 138.925781 79.242188 C 138.984375 78.742188 139.058594 78.300781 139.089844 78.257812 C 139.125 78.210938 139.179688 77.957031 139.214844 77.6875 C 139.246094 77.417969 139.3125 77.144531 139.351562 77.097656 C 139.402344 77.039062 139.417969 76.902344 139.402344 76.785156 C 139.378906 76.671875 139.386719 76.558594 139.417969 76.539062 C 139.449219 76.515625 139.507812 76.222656 139.539062 75.886719 C 139.574219 75.550781 139.621094 75.273438 139.664062 75.273438 C 139.695312 75.273438 139.753906 75.011719 139.785156 74.699219 C 139.820312 74.382812 139.875 74.109375 139.910156 74.085938 C 139.941406 74.0625 140.015625 73.726562 140.074219 73.332031 C 140.128906 72.933594 140.203125 72.574219 140.238281 72.53125 C 140.277344 72.484375 140.328125 72.203125 140.359375 71.894531 C 140.390625 71.589844 140.449219 71.34375 140.480469 71.34375 C 140.515625 71.34375 140.570312 71.082031 140.605469 70.773438 C 140.636719 70.453125 140.695312 70.183594 140.734375 70.160156 C 140.769531 70.132812 140.785156 70.0625 140.75 69.996094 C 140.726562 69.921875 140.742188 69.824219 140.792969 69.765625 C 140.832031 69.71875 140.898438 69.449219 140.933594 69.175781 C 140.964844 68.90625 141.011719 68.644531 141.054688 68.605469 C 141.085938 68.554688 141.144531 68.308594 141.167969 68.054688 C 141.203125 67.792969 141.257812 67.566406 141.292969 67.539062 C 141.332031 67.523438 141.339844 67.410156 141.316406 67.296875 C 141.300781 67.179688 141.316406 67.042969 141.367188 66.984375 C 141.40625 66.933594 141.472656 66.671875 141.503906 66.410156 C 141.539062 66.15625 141.59375 65.945312 141.628906 65.945312 C 141.660156 65.945312 141.71875 65.699219 141.75 65.390625 C 141.78125 65.085938 141.847656 64.792969 141.890625 64.742188 C 141.9375 64.683594 141.953125 64.585938 141.929688 64.511719 C 141.898438 64.449219 141.914062 64.375 141.945312 64.351562 C 141.988281 64.332031 142.042969 64.070312 142.078125 63.777344 C 142.101562 63.484375 142.160156 63.230469 142.199219 63.203125 C 142.242188 63.179688 142.296875 62.949219 142.332031 62.6875 C 142.355469 62.433594 142.421875 62.171875 142.460938 62.125 C 142.511719 62.066406 142.527344 61.96875 142.503906 61.894531 C 142.46875 61.828125 142.488281 61.757812 142.519531 61.730469 C 142.558594 61.707031 142.617188 61.4375 142.648438 61.117188 C 142.683594 60.808594 142.738281 60.546875 142.773438 60.546875 C 142.804688 60.546875 142.863281 60.332031 142.894531 60.070312 C 142.929688 59.816406 142.976562 59.5625 143.019531 59.523438 C 143.050781 59.472656 143.125 59.144531 143.183594 58.785156 C 143.230469 58.425781 143.304688 58.089844 143.34375 58.050781 C 143.378906 58 143.425781 57.761719 143.460938 57.519531 C 143.492188 57.273438 143.558594 57.027344 143.605469 56.96875 C 143.65625 56.914062 143.671875 56.773438 143.65625 56.660156 C 143.632812 56.542969 143.640625 56.429688 143.671875 56.414062 C 143.714844 56.390625 143.761719 56.152344 143.796875 55.882812 C 143.828125 55.613281 143.886719 55.375 143.917969 55.351562 C 143.949219 55.324219 144.007812 55.089844 144.039062 54.816406 C 144.074219 54.546875 144.121094 54.328125 144.164062 54.328125 C 144.195312 54.328125 144.246094 54.105469 144.277344 53.835938 C 144.3125 53.566406 144.367188 53.328125 144.402344 53.3125 C 144.441406 53.289062 144.449219 53.171875 144.425781 53.058594 C 144.410156 52.945312 144.433594 52.804688 144.484375 52.75 C 144.523438 52.691406 144.589844 52.429688 144.621094 52.175781 C 144.65625 51.914062 144.703125 51.683594 144.746094 51.660156 C 144.777344 51.644531 144.835938 51.398438 144.867188 51.128906 C 144.898438 50.867188 144.949219 50.621094 144.988281 50.597656 C 145.023438 50.578125 145.039062 50.507812 145.007812 50.441406 C 144.980469 50.367188 145.007812 50.269531 145.054688 50.210938 C 145.105469 50.15625 145.160156 49.894531 145.195312 49.640625 C 145.226562 49.378906 145.277344 49.148438 145.316406 49.125 C 145.351562 49.105469 145.40625 48.863281 145.441406 48.59375 C 145.472656 48.328125 145.523438 48.085938 145.5625 48.058594 C 145.59375 48.042969 145.613281 47.96875 145.578125 47.90625 C 145.554688 47.832031 145.570312 47.734375 145.621094 47.675781 C 145.660156 47.625 145.726562 47.371094 145.757812 47.128906 C 145.792969 46.882812 145.847656 46.636719 145.882812 46.59375 C 145.914062 46.546875 145.972656 46.324219 146.003906 46.105469 C 146.039062 45.875 146.09375 45.644531 146.144531 45.597656 C 146.191406 45.539062 146.210938 45.402344 146.191406 45.285156 C 146.167969 45.171875 146.175781 45.058594 146.21875 45.039062 C 146.25 45.015625 146.308594 44.796875 146.332031 44.550781 C 146.363281 44.304688 146.421875 44.101562 146.453125 44.101562 C 146.488281 44.101562 146.535156 43.886719 146.570312 43.632812 C 146.601562 43.378906 146.667969 43.117188 146.707031 43.0625 C 146.757812 43.003906 146.78125 42.863281 146.765625 42.75 C 146.742188 42.636719 146.75 42.519531 146.789062 42.503906 C 146.824219 42.480469 146.878906 42.25 146.914062 41.988281 C 146.9375 41.734375 146.996094 41.480469 147.027344 41.441406 C 147.058594 41.390625 147.117188 41.195312 147.148438 40.992188 C 147.183594 40.785156 147.25 40.574219 147.289062 40.523438 C 147.339844 40.46875 147.355469 40.328125 147.339844 40.214844 C 147.3125 40.097656 147.320312 39.984375 147.363281 39.960938 C 147.394531 39.945312 147.453125 39.699219 147.484375 39.429688 C 147.519531 39.167969 147.566406 38.921875 147.609375 38.90625 C 147.640625 38.878906 147.691406 38.652344 147.722656 38.390625 C 147.746094 38.136719 147.8125 37.839844 147.863281 37.742188 C 147.910156 37.644531 147.925781 37.472656 147.910156 37.351562 C 147.886719 37.234375 147.902344 37.121094 147.933594 37.097656 C 147.976562 37.070312 148.007812 36.90625 148.007812 36.738281 C 148.007812 36.566406 148.042969 36.402344 148.074219 36.375 C 148.117188 36.351562 148.132812 36.222656 148.105469 36.082031 C 148.089844 35.949219 148.105469 35.789062 148.15625 35.730469 C 148.207031 35.679688 148.269531 35.191406 148.304688 34.648438 C 148.335938 34.109375 148.394531 33.644531 148.433594 33.617188 C 148.539062 33.546875 148.539062 28.585938 148.433594 28.449219 C 148.394531 28.398438 148.328125 28.007812 148.296875 27.589844 C 148.261719 27.179688 148.207031 26.835938 148.15625 26.835938 C 148.117188 26.835938 148.089844 26.738281 148.097656 26.605469 C 148.117188 26.484375 148.105469 26.34375 148.074219 26.304688 C 148.050781 26.253906 148 26.011719 147.976562 25.757812 C 147.945312 25.496094 147.886719 25.265625 147.84375 25.242188 C 147.8125 25.214844 147.753906 25.078125 147.730469 24.921875 C 147.699219 24.757812 147.625 24.527344 147.558594 24.40625 C 147.492188 24.285156 147.4375 24.128906 147.4375 24.070312 C 147.4375 23.859375 146.601562 22.105469 146.316406 21.699219 C 146.210938 21.558594 146.144531 21.4375 146.167969 21.4375 C 146.199219 21.4375 146.039062 21.199219 145.808594 20.90625 C 145.578125 20.617188 145.390625 20.347656 145.390625 20.316406 C 145.390625 20.226562 143.730469 18.574219 143.648438 18.574219 C 143.617188 18.574219 143.363281 18.402344 143.074219 18.179688 C 142.511719 17.746094 142.332031 17.632812 142.035156 17.492188 C 141.921875 17.433594 141.773438 17.355469 141.710938 17.296875 C 141.601562 17.207031 140.75 16.75 140.644531 16.722656 C 140.554688 16.707031 140.015625 16.488281 139.539062 16.273438 C 139.410156 16.214844 139.253906 16.167969 139.199219 16.160156 C 139.148438 16.160156 139.074219 16.125 139.042969 16.09375 C 139.007812 16.0625 138.917969 16.035156 138.84375 16.035156 C 138.761719 16.035156 138.601562 15.953125 138.476562 15.863281 C 138.296875 15.71875 138.238281 15.699219 138.183594 15.800781 C 138.140625 15.863281 138.109375 15.9375 138.109375 15.960938 C 138.109375 16.070312 137.632812 16.183594 136.71875 16.304688 C 133.886719 16.683594 131.488281 17.96875 129.109375 20.363281 C 126.484375 23.007812 124.273438 26.679688 122.226562 31.8125 C 117.808594 42.855469 114.742188 60.136719 113.15625 82.921875 C 113.066406 84.222656 112.949219 85.394531 112.902344 85.523438 C 112.746094 85.910156 112.261719 85.933594 111.992188 85.574219 C 111.835938 85.367188 111.835938 85.335938 112.007812 82.914062 C 114.113281 53.230469 118.449219 33.691406 125.214844 23.398438 C 128.5625 18.328125 132.519531 15.546875 137.070312 15.09375 C 137.625 15.039062 138.109375 15.144531 138.109375 15.316406 C 138.109375 15.355469 138.148438 15.367188 138.199219 15.332031 C 138.25 15.308594 138.273438 15.210938 138.25 15.128906 C 138.222656 15.046875 138.230469 14.957031 138.273438 14.933594 C 138.304688 14.90625 138.363281 14.480469 138.394531 13.972656 C 138.429688 13.46875 138.484375 13.007812 138.519531 12.96875 C 138.550781 12.917969 138.609375 12.4375 138.640625 11.878906 C 138.671875 11.332031 138.738281 10.855469 138.78125 10.832031 C 138.820312 10.808594 138.84375 10.539062 138.84375 10.242188 C 138.835938 9.941406 138.84375 9.636719 138.871094 9.574219 C 138.894531 9.507812 138.933594 9.113281 138.953125 8.699219 L 139 7.945312 L 138.535156 7.8125 C 133.0625 6.21875 126.253906 4.769531 120.066406 3.886719 C 112.15625 2.757812 104.5625 2.324219 96.546875 2.535156 Z M 134.617188 86.710938 C 134.777344 86.859375 134.796875 87.210938 134.65625 87.40625 C 134.410156 87.726562 131.84375 88.722656 130.171875 89.140625 C 126.375 90.097656 122.539062 89.835938 119.09375 88.394531 C 118.71875 88.242188 118.34375 88.035156 118.269531 87.953125 C 117.972656 87.628906 118.195312 87.054688 118.621094 87.054688 C 118.726562 87.054688 119.226562 87.21875 119.734375 87.421875 C 120.820312 87.855469 122.195312 88.234375 123.382812 88.414062 C 124.414062 88.578125 126.703125 88.59375 127.71875 88.453125 C 129.371094 88.222656 131.253906 87.699219 132.832031 87.046875 C 134.296875 86.441406 134.296875 86.441406 134.617188 86.710938 Z M 50.921875 95.71875 C 51.011719 95.816406 51.054688 95.972656 51.039062 96.144531 C 51.003906 96.488281 50.546875 96.871094 48.714844 98.09375 C 46.097656 99.84375 43.386719 100.9375 40.746094 101.332031 C 38.914062 101.609375 35.796875 101.429688 35.371094 101.027344 C 35.117188 100.792969 35.140625 100.421875 35.425781 100.210938 C 35.625 100.070312 35.671875 100.0625 36.492188 100.195312 C 37.585938 100.359375 39.550781 100.359375 40.621094 100.195312 C 43.519531 99.753906 46.441406 98.445312 49.320312 96.285156 C 50.34375 95.515625 50.644531 95.40625 50.921875 95.71875 Z M 50.921875 95.71875 "/>
<path style=" stroke:none;fill-rule:nonzero;fill:rgb(0%,0%,0%);fill-opacity:1;" d="M 112.089844 111.15625 C 105.257812 111.46875 101.273438 111.828125 95.316406 112.671875 C 89.917969 113.433594 81 115.101562 80.515625 115.445312 C 80.402344 115.527344 79.347656 115.839844 78.175781 116.132812 C 68.390625 118.585938 56.003906 122.933594 42.800781 128.527344 C 41.832031 128.9375 41.007812 129.273438 40.949219 129.273438 C 40.828125 129.273438 40.746094 129.714844 40.746094 130.394531 C 40.746094 130.671875 40.710938 130.917969 40.671875 130.941406 C 40.632812 130.964844 40.574219 131.71875 40.539062 132.601562 C 40.515625 133.496094 40.46875 134.28125 40.449219 134.34375 C 40.425781 134.410156 40.410156 135.039062 40.417969 135.753906 C 40.417969 136.5625 40.394531 137.054688 40.335938 137.085938 C 40.222656 137.160156 40.222656 143.019531 40.34375 143.019531 C 40.402344 143.019531 40.425781 143.402344 40.417969 144.179688 C 40.410156 144.828125 40.417969 145.40625 40.441406 145.472656 C 40.46875 145.539062 40.507812 146.167969 40.539062 146.863281 C 40.574219 147.558594 40.621094 148.148438 40.664062 148.171875 C 40.695312 148.199219 40.753906 148.648438 40.785156 149.179688 C 40.820312 149.703125 40.875 150.160156 40.925781 150.183594 C 40.964844 150.210938 40.992188 150.375 40.984375 150.539062 C 40.964844 150.699219 40.984375 150.871094 41.007812 150.914062 C 41.03125 150.960938 41.082031 151.316406 41.113281 151.707031 C 41.144531 152.109375 41.203125 152.425781 41.238281 152.425781 C 41.269531 152.425781 41.328125 152.671875 41.359375 152.976562 C 41.390625 153.285156 41.441406 153.566406 41.480469 153.613281 C 41.515625 153.65625 41.589844 154.015625 41.644531 154.414062 C 41.703125 154.808594 41.777344 155.144531 41.808594 155.167969 C 41.851562 155.191406 41.898438 155.40625 41.933594 155.644531 C 41.964844 155.871094 42.03125 156.117188 42.070312 156.167969 C 42.121094 156.222656 42.136719 156.320312 42.113281 156.394531 C 42.078125 156.460938 42.09375 156.535156 42.136719 156.558594 C 42.183594 156.59375 42.21875 156.699219 42.21875 156.804688 C 42.21875 156.910156 42.257812 157.027344 42.300781 157.050781 C 42.347656 157.082031 42.367188 157.140625 42.332031 157.179688 C 42.308594 157.222656 42.324219 157.304688 42.367188 157.359375 C 42.414062 157.417969 42.472656 157.605469 42.503906 157.785156 C 42.539062 157.964844 42.59375 158.144531 42.628906 158.195312 C 42.660156 158.238281 42.734375 158.457031 42.78125 158.6875 C 42.839844 158.90625 42.914062 159.128906 42.953125 159.175781 C 42.988281 159.21875 43.042969 159.382812 43.078125 159.527344 C 43.101562 159.667969 43.160156 159.789062 43.199219 159.789062 C 43.234375 159.789062 43.289062 159.929688 43.324219 160.101562 C 43.355469 160.265625 43.414062 160.4375 43.445312 160.488281 C 43.488281 160.527344 43.511719 160.585938 43.511719 160.609375 C 43.519531 160.773438 43.707031 161.191406 44.542969 162.898438 C 45.171875 164.175781 45.507812 164.796875 45.6875 165.027344 C 45.746094 165.09375 45.828125 165.238281 45.882812 165.355469 C 46.03125 165.664062 46.179688 165.878906 46.292969 165.953125 C 46.34375 165.984375 46.390625 166.058594 46.390625 166.097656 C 46.390625 166.148438 46.523438 166.34375 46.675781 166.53125 C 46.832031 166.730469 46.964844 166.917969 46.964844 166.949219 C 46.964844 166.984375 47.136719 167.210938 47.355469 167.457031 C 47.570312 167.703125 47.78125 167.972656 47.824219 168.046875 C 47.945312 168.265625 49.066406 169.445312 49.148438 169.445312 C 49.179688 169.445312 49.425781 169.683594 49.6875 169.976562 C 49.949219 170.273438 50.203125 170.507812 50.253906 170.507812 C 50.300781 170.507812 50.554688 170.699219 50.816406 170.925781 C 51.078125 171.148438 51.300781 171.328125 51.316406 171.3125 C 51.332031 171.292969 51.511719 171.425781 51.71875 171.589844 C 51.921875 171.761719 52.132812 171.898438 52.191406 171.898438 C 52.242188 171.898438 52.28125 171.933594 52.28125 171.980469 C 52.28125 172.023438 52.324219 172.0625 52.371094 172.0625 C 52.421875 172.0625 52.578125 172.144531 52.714844 172.242188 C 53.117188 172.53125 55.40625 173.699219 55.800781 173.824219 C 55.957031 173.871094 56.355469 174.042969 56.472656 174.109375 C 56.550781 174.15625 56.660156 174.191406 56.707031 174.191406 C 56.757812 174.191406 57.042969 174.304688 57.339844 174.445312 C 58.253906 174.871094 58.664062 174.992188 61.324219 175.613281 C 65.25 176.53125 70.324219 177.152344 79.324219 177.832031 C 81.1875 177.972656 82.449219 178.011719 87.871094 178.09375 C 100.695312 178.273438 112.253906 176.554688 123.382812 172.816406 C 130.15625 170.535156 136.046875 167.808594 142.488281 163.980469 L 144.367188 162.859375 L 145.949219 161.289062 C 146.804688 160.421875 147.519531 159.675781 147.519531 159.628906 C 147.519531 159.578125 147.738281 159.277344 148.007812 158.949219 C 148.277344 158.613281 148.5 158.316406 148.5 158.277344 C 148.5 158.246094 148.589844 158.089844 148.703125 157.941406 C 148.820312 157.792969 148.910156 157.648438 148.910156 157.621094 C 148.910156 157.597656 149 157.449219 149.113281 157.304688 C 149.292969 157.066406 149.710938 156.347656 149.988281 155.78125 C 150.046875 155.667969 150.113281 155.5625 150.136719 155.535156 C 150.203125 155.472656 150.414062 155.011719 150.421875 154.921875 C 150.421875 154.875 150.519531 154.636719 150.644531 154.390625 C 150.824219 154.007812 150.921875 153.777344 150.996094 153.574219 C 151.003906 153.546875 151.050781 153.425781 151.101562 153.300781 C 151.160156 153.171875 151.199219 153.03125 151.199219 152.992188 C 151.199219 152.949219 151.234375 152.851562 151.28125 152.769531 C 151.386719 152.589844 151.558594 152.164062 151.566406 152.058594 C 151.566406 152.011719 151.59375 151.9375 151.625 151.894531 C 151.648438 151.847656 151.699219 151.65625 151.730469 151.46875 C 151.765625 151.273438 151.8125 151.101562 151.855469 151.078125 C 151.886719 151.050781 151.945312 150.839844 151.976562 150.601562 C 152.011719 150.375 152.074219 150.128906 152.117188 150.078125 C 152.164062 150.023438 152.183594 149.921875 152.15625 149.851562 C 152.125 149.785156 152.140625 149.710938 152.183594 149.6875 C 152.230469 149.652344 152.261719 149.546875 152.261719 149.441406 C 152.261719 149.335938 152.296875 149.226562 152.335938 149.203125 C 152.371094 149.179688 152.386719 149.066406 152.363281 148.949219 C 152.34375 148.835938 152.363281 148.695312 152.410156 148.640625 C 152.460938 148.582031 152.527344 148.277344 152.550781 147.96875 C 152.582031 147.648438 152.632812 147.320312 152.671875 147.230469 C 152.769531 147.019531 152.917969 145.277344 152.917969 144.417969 C 152.917969 144.058594 152.960938 143.738281 153 143.714844 C 153.113281 143.640625 153.105469 140.179688 152.992188 140.113281 C 152.941406 140.082031 152.910156 139.738281 152.917969 139.230469 C 152.925781 138.773438 152.917969 138.339844 152.894531 138.273438 C 152.867188 138.207031 152.828125 137.707031 152.796875 137.167969 C 152.761719 136.628906 152.714844 136.144531 152.671875 136.105469 C 152.640625 136.054688 152.582031 135.671875 152.550781 135.246094 C 152.515625 134.820312 152.46875 134.425781 152.433594 134.386719 C 152.394531 134.335938 152.320312 133.894531 152.261719 133.40625 C 152.207031 132.90625 152.132812 132.464844 152.101562 132.421875 C 152.066406 132.375 152.011719 132.078125 151.976562 131.769531 C 151.945312 131.449219 151.886719 131.15625 151.855469 131.113281 C 151.820312 131.066406 151.738281 130.738281 151.691406 130.378906 C 151.632812 130.015625 151.558594 129.683594 151.527344 129.640625 C 151.488281 129.59375 151.4375 129.347656 151.40625 129.085938 C 151.371094 128.832031 151.316406 128.617188 151.28125 128.617188 C 151.25 128.617188 151.191406 128.414062 151.160156 128.167969 C 151.132812 127.921875 151.078125 127.703125 151.035156 127.675781 C 150.996094 127.652344 150.980469 127.578125 151.011719 127.511719 C 151.035156 127.441406 151.019531 127.34375 150.972656 127.285156 C 150.921875 127.234375 150.863281 127.039062 150.832031 126.859375 C 150.800781 126.679688 150.742188 126.492188 150.710938 126.449219 C 150.675781 126.402344 150.617188 126.210938 150.585938 126.023438 C 150.554688 125.828125 150.496094 125.65625 150.464844 125.632812 C 150.421875 125.605469 150.40625 125.535156 150.4375 125.46875 C 150.464844 125.394531 150.449219 125.296875 150.398438 125.238281 C 150.347656 125.191406 150.292969 124.992188 150.257812 124.8125 C 150.226562 124.632812 150.167969 124.445312 150.136719 124.40625 C 150.105469 124.355469 150.046875 124.191406 150.011719 124.035156 C 149.980469 123.882812 149.914062 123.710938 149.875 123.652344 C 149.832031 123.59375 149.816406 123.511719 149.84375 123.472656 C 149.875 123.429688 149.859375 123.375 149.816406 123.347656 C 149.777344 123.324219 149.71875 123.136719 149.695312 122.933594 C 149.660156 122.734375 149.605469 122.546875 149.5625 122.523438 C 149.53125 122.5 149.472656 122.335938 149.441406 122.15625 C 149.40625 121.972656 149.351562 121.828125 149.300781 121.828125 C 149.253906 121.828125 149.238281 121.769531 149.261719 121.703125 C 149.292969 121.640625 149.277344 121.566406 149.238281 121.539062 C 149.203125 121.515625 149.144531 121.351562 149.113281 121.171875 C 149.082031 120.992188 149.03125 120.828125 148.992188 120.804688 C 148.957031 120.78125 148.902344 120.632812 148.867188 120.46875 C 148.84375 120.304688 148.769531 120.09375 148.703125 119.996094 C 148.648438 119.894531 148.574219 119.699219 148.539062 119.550781 C 148.507812 119.40625 148.433594 119.183594 148.367188 119.0625 C 148.304688 118.9375 148.253906 118.785156 148.253906 118.710938 C 148.253906 118.644531 148.222656 118.554688 148.179688 118.503906 C 148.140625 118.464844 148.066406 118.285156 148.015625 118.105469 C 147.960938 117.925781 147.886719 117.703125 147.84375 117.613281 C 147.804688 117.523438 147.730469 117.351562 147.691406 117.230469 C 147.601562 116.976562 147.492188 116.925781 145.308594 116.058594 C 138.609375 113.398438 131.054688 111.855469 121.867188 111.273438 C 120.519531 111.183594 113.335938 111.101562 112.089844 111.15625 Z M 121.730469 125.304688 C 122.1875 125.820312 122.5625 126.261719 122.5625 126.292969 C 122.5625 126.320312 122.933594 126.746094 123.382812 127.226562 C 123.832031 127.710938 124.199219 128.136719 124.199219 128.167969 C 124.199219 128.199219 124.773438 128.847656 125.46875 129.601562 C 126.164062 130.359375 126.738281 131.007812 126.738281 131.046875 C 126.738281 131.082031 126.925781 131.300781 127.160156 131.539062 C 127.398438 131.777344 127.539062 131.972656 127.480469 131.972656 C 127.40625 131.972656 127.382812 132.054688 127.40625 132.21875 C 127.433594 132.355469 127.414062 132.488281 127.382812 132.511719 C 127.34375 132.527344 127.292969 132.773438 127.261719 133.042969 C 127.226562 133.304688 127.179688 133.550781 127.136719 133.566406 C 127.105469 133.59375 127.046875 133.820312 127.015625 134.082031 C 126.988281 134.335938 126.925781 134.597656 126.882812 134.648438 C 126.835938 134.707031 126.816406 134.804688 126.84375 134.878906 C 126.875 134.941406 126.859375 135.015625 126.816406 135.039062 C 126.777344 135.066406 126.71875 135.3125 126.6875 135.582031 C 126.65625 135.84375 126.605469 136.089844 126.566406 136.105469 C 126.53125 136.128906 126.472656 136.359375 126.441406 136.621094 C 126.417969 136.875 126.351562 137.136719 126.3125 137.183594 C 126.261719 137.242188 126.246094 137.339844 126.269531 137.414062 C 126.300781 137.480469 126.285156 137.550781 126.253906 137.570312 C 126.210938 137.59375 126.164062 137.839844 126.132812 138.101562 C 126.097656 138.371094 126.039062 138.617188 126 138.640625 C 125.960938 138.664062 125.902344 138.894531 125.867188 139.15625 C 125.84375 139.410156 125.789062 139.65625 125.753906 139.703125 C 125.714844 139.746094 125.664062 139.957031 125.632812 140.179688 C 125.597656 140.390625 125.542969 140.578125 125.507812 140.605469 C 125.476562 140.621094 125.46875 140.734375 125.492188 140.851562 C 125.507812 140.964844 125.492188 141.105469 125.445312 141.160156 C 125.402344 141.210938 125.335938 141.421875 125.304688 141.628906 C 125.273438 141.832031 125.214844 142.027344 125.183594 142.078125 C 125.148438 142.117188 125.101562 142.28125 125.066406 142.4375 C 125.042969 142.59375 124.953125 142.789062 124.878906 142.871094 C 124.757812 143.011719 124.648438 142.921875 122.972656 141.300781 C 121.992188 140.351562 121.164062 139.582031 121.132812 139.582031 C 121.097656 139.582031 120.429688 138.96875 119.644531 138.207031 C 118.855469 137.453125 118.171875 136.824219 118.121094 136.808594 C 118.0625 136.792969 117.828125 136.578125 117.597656 136.34375 C 117.359375 136.097656 117.148438 135.898438 117.113281 135.898438 C 117.089844 135.898438 116.8125 135.671875 116.5 135.394531 C 115.910156 134.878906 115.894531 134.835938 116.101562 134.386719 C 116.171875 134.238281 116.34375 133.804688 116.386719 133.691406 C 116.476562 133.421875 116.574219 133.183594 116.84375 132.585938 C 116.902344 132.449219 116.960938 132.300781 116.96875 132.257812 C 116.984375 132.113281 117.089844 131.832031 117.417969 131.113281 C 117.472656 130.972656 117.53125 130.828125 117.539062 130.785156 C 117.539062 130.738281 117.589844 130.597656 117.636719 130.476562 C 117.695312 130.34375 117.738281 130.1875 117.738281 130.125 C 117.738281 130.058594 117.769531 130.007812 117.816406 130.007812 C 117.859375 130.007812 117.917969 129.878906 117.949219 129.722656 C 117.972656 129.566406 118.03125 129.410156 118.070312 129.386719 C 118.113281 129.371094 118.179688 129.191406 118.226562 129.003906 C 118.308594 128.675781 118.441406 128.355469 118.695312 127.867188 C 118.75 127.75 118.800781 127.613281 118.800781 127.554688 C 118.800781 127.503906 118.875 127.292969 118.972656 127.078125 C 119.0625 126.867188 119.167969 126.621094 119.199219 126.53125 C 119.242188 126.441406 119.316406 126.253906 119.371094 126.121094 C 119.4375 125.984375 119.488281 125.835938 119.496094 125.796875 C 119.503906 125.699219 119.585938 125.484375 119.734375 125.140625 C 119.796875 125 119.878906 124.796875 119.929688 124.675781 C 119.988281 124.527344 120.09375 124.445312 120.25 124.421875 C 120.855469 124.332031 120.84375 124.332031 121.730469 125.304688 Z M 75.5 129.8125 C 75.601562 129.878906 75.683594 129.910156 75.683594 129.871094 C 75.683594 129.773438 76.664062 130.769531 76.777344 130.992188 C 76.964844 131.351562 77.113281 131.597656 77.34375 131.949219 C 77.464844 132.144531 77.554688 132.324219 77.546875 132.355469 C 77.539062 132.429688 77.6875 132.839844 77.800781 133.035156 C 77.84375 133.109375 77.898438 133.289062 77.933594 133.445312 C 77.964844 133.601562 78.03125 133.78125 78.070312 133.828125 C 78.121094 133.886719 78.136719 133.984375 78.113281 134.050781 C 78.085938 134.109375 78.113281 134.207031 78.160156 134.253906 C 78.308594 134.402344 78.300781 138.09375 78.152344 138.183594 C 78.09375 138.214844 78.070312 138.304688 78.105469 138.378906 C 78.128906 138.460938 78.121094 138.566406 78.070312 138.625 C 78.03125 138.671875 77.964844 138.886719 77.933594 139.089844 C 77.898438 139.296875 77.84375 139.492188 77.808594 139.539062 C 77.777344 139.582031 77.726562 139.730469 77.695312 139.867188 C 77.660156 140 77.589844 140.21875 77.53125 140.359375 C 77.464844 140.488281 77.316406 140.816406 77.203125 141.070312 C 77.082031 141.332031 76.992188 141.554688 77 141.5625 C 77.015625 141.578125 76.925781 141.734375 76.820312 141.914062 C 76.703125 142.09375 76.515625 142.445312 76.386719 142.691406 C 76.007812 143.425781 75.878906 143.65625 75.648438 143.949219 C 75.535156 144.105469 75.4375 144.261719 75.4375 144.285156 C 75.4375 144.320312 75.257812 144.574219 75.027344 144.859375 C 74.804688 145.144531 74.617188 145.40625 74.617188 145.449219 C 74.617188 145.488281 74.371094 145.792969 74.070312 146.117188 L 73.511719 146.707031 L 72.082031 145.980469 C 71.296875 145.585938 70.496094 145.160156 70.304688 145.039062 C 70.109375 144.917969 69.9375 144.816406 69.914062 144.816406 C 69.882812 144.816406 69.742188 144.726562 69.59375 144.613281 C 69.449219 144.5 69.300781 144.410156 69.257812 144.410156 C 69.226562 144.410156 68.964844 144.222656 68.679688 144 C 68.390625 143.769531 68.121094 143.589844 68.074219 143.589844 C 67.949219 143.589844 65.28125 140.921875 65.308594 140.832031 C 65.324219 140.800781 65.199219 140.589844 65.046875 140.367188 C 64.890625 140.15625 64.757812 139.949219 64.75 139.917969 C 64.75 139.894531 64.652344 139.65625 64.53125 139.402344 C 64.40625 139.148438 64.308594 138.886719 64.308594 138.828125 C 64.308594 138.761719 64.277344 138.683594 64.234375 138.632812 C 64 138.402344 63.925781 135.546875 64.152344 135.277344 C 64.195312 135.230469 64.203125 135.164062 64.179688 135.140625 C 64.128906 135.089844 64.226562 134.859375 64.613281 134.140625 C 64.816406 133.757812 65.511719 132.988281 65.945312 132.667969 C 66.273438 132.429688 66.402344 132.382812 66.746094 132.382812 C 67.125 132.382812 67.664062 132.570312 67.730469 132.726562 C 67.746094 132.765625 67.8125 132.789062 67.867188 132.789062 C 67.925781 132.789062 68.089844 132.882812 68.21875 132.996094 C 68.359375 133.109375 68.5 133.199219 68.53125 133.199219 C 68.628906 133.199219 69.789062 134.363281 69.789062 134.460938 C 69.789062 134.566406 70.125 134.917969 70.222656 134.917969 C 70.265625 134.917969 70.40625 135 70.542969 135.089844 C 71.304688 135.636719 72.082031 135.828125 72.394531 135.546875 C 72.515625 135.433594 72.554688 135.246094 72.605469 134.65625 C 72.628906 134.246094 72.6875 133.871094 72.726562 133.820312 C 72.777344 133.773438 72.835938 133.535156 72.867188 133.296875 C 72.890625 133.070312 72.949219 132.871094 72.980469 132.871094 C 73.023438 132.871094 73.070312 132.726562 73.105469 132.546875 C 73.136719 132.367188 73.195312 132.203125 73.234375 132.167969 C 73.277344 132.144531 73.292969 132.09375 73.269531 132.054688 C 73.242188 132.011719 73.25 131.914062 73.300781 131.832031 C 73.34375 131.75 73.472656 131.480469 73.585938 131.238281 C 74.027344 130.3125 74.332031 129.894531 74.660156 129.761719 C 74.921875 129.648438 75.304688 129.671875 75.5 129.8125 Z M 99.6875 149.144531 C 99.710938 149.179688 99.941406 149.238281 100.195312 149.261719 C 100.449219 149.285156 100.695312 149.34375 100.742188 149.390625 C 100.785156 149.433594 100.867188 149.449219 100.914062 149.433594 C 100.972656 149.40625 101.128906 149.449219 101.257812 149.523438 C 101.390625 149.589844 101.5625 149.644531 101.644531 149.644531 C 101.714844 149.644531 101.78125 149.679688 101.78125 149.710938 C 101.78125 149.742188 101.878906 149.816406 102.011719 149.875 C 102.4375 150.0625 102.625 150.203125 103.148438 150.726562 C 103.882812 151.453125 104.03125 151.789062 104.023438 152.722656 C 104.023438 153.417969 104.007812 153.492188 103.761719 153.851562 C 103.613281 154.0625 103.5 154.269531 103.5 154.316406 C 103.5 154.421875 102.050781 155.863281 101.9375 155.863281 C 101.886719 155.863281 101.707031 155.96875 101.542969 156.09375 C 101.21875 156.355469 100.152344 156.886719 99.785156 156.976562 C 99.65625 157.007812 99.449219 157.082031 99.335938 157.140625 C 99.222656 157.207031 99.023438 157.253906 98.902344 157.253906 C 98.777344 157.253906 98.65625 157.296875 98.632812 157.34375 C 98.597656 157.394531 98.515625 157.410156 98.453125 157.386719 C 98.378906 157.351562 98.273438 157.378906 98.199219 157.433594 C 98.019531 157.589844 94.171875 157.582031 93.984375 157.433594 C 93.910156 157.367188 93.8125 157.34375 93.773438 157.367188 C 93.730469 157.402344 93.671875 157.386719 93.640625 157.335938 C 93.617188 157.296875 93.519531 157.253906 93.429688 157.253906 C 93.28125 157.253906 92.691406 157.035156 92.355469 156.84375 C 92.273438 156.796875 92.128906 156.714844 92.027344 156.664062 C 91.652344 156.453125 90.726562 155.488281 90.554688 155.128906 C 90.464844 154.921875 90.359375 154.695312 90.320312 154.621094 C 90.222656 154.433594 90.222656 153.679688 90.320312 153.621094 C 90.351562 153.597656 90.410156 153.441406 90.433594 153.277344 C 90.457031 153.113281 90.574219 152.859375 90.6875 152.714844 C 90.800781 152.566406 90.875 152.425781 90.851562 152.402344 C 90.792969 152.34375 92.347656 150.789062 92.472656 150.789062 C 92.519531 150.789062 92.683594 150.699219 92.832031 150.585938 C 92.976562 150.472656 93.132812 150.382812 93.183594 150.382812 C 93.230469 150.382812 93.273438 150.347656 93.273438 150.316406 C 93.273438 150.265625 93.519531 150.136719 93.84375 150.011719 C 93.945312 149.980469 94.386719 149.785156 94.5 149.726562 C 94.574219 149.695312 94.753906 149.636719 94.910156 149.605469 C 95.066406 149.570312 95.246094 149.507812 95.292969 149.464844 C 95.351562 149.417969 95.449219 149.398438 95.515625 149.425781 C 95.570312 149.449219 95.660156 149.433594 95.703125 149.390625 C 95.742188 149.351562 96.003906 149.292969 96.285156 149.269531 C 96.570312 149.238281 96.816406 149.179688 96.839844 149.144531 C 96.898438 149.046875 99.628906 149.046875 99.6875 149.144531 Z M 99.6875 149.144531 "/>
</g>
</svg>
